<?xml version="1.0" encoding="UTF-8"?>
<svg width="33px" height="33px" viewBox="0 0 33 33" version="1.1" xmlns="http://www.w3.org/2000/svg" xmlns:xlink="http://www.w3.org/1999/xlink">
    <!-- Generator: Sketch 43.2 (39069) - http://www.bohemiancoding.com/sketch -->
    <title>hidden icon hover 1</title>
    <desc>Created with Sketch.</desc>
    <defs></defs>
    <g id="Symbols" stroke="none" stroke-width="1" fill="none" fill-rule="evenodd">
        <g id="hidden-icon-hover-1">
            <path d="M23.8987583,17.4685512 C23.4915153,18.1401889 23.0064093,18.8121924 22.4470661,19.4370272 C20.8806413,21.1868595 19.0601898,22.2202012 17,22.2202012 C16.0845907,22.2202012 15.2129877,22.0145536 14.3806908,21.6244441 C14.2340734,21.5557224 14.0888647,21.4813411 13.9450739,21.4014439 L13.280424,22.5976113 C13.4514203,22.6926253 13.6245868,22.7813277 13.7999228,22.8635101 C14.8089861,23.3364726 15.8776803,23.5886223 17,23.5886223 C19.5058037,23.5886223 21.6637793,22.3636919 23.4666426,20.3497375 C24.0865502,19.6572469 24.6203204,18.9178304 25.0688824,18.1780481 C25.3397447,17.7313336 25.524001,17.3795765 25.6211447,17.1692734 L25.7504901,16.8892578 L25.6263187,16.6069097 C25.5333309,16.3954688 25.3557244,16.0425549 25.0924032,15.5946479 C24.6565072,14.8531929 24.1330451,14.1121457 23.5194529,13.4181273 C23.4237708,13.3099038 23.3264383,13.2035128 23.2274461,13.0990687 L22.2342516,14.0404193 C22.3222715,14.1332868 22.4089424,14.2280239 22.4942558,14.3245197 C23.0453311,14.9478268 23.5188702,15.6181996 23.9127376,16.2881646 C24.0479076,16.5180876 24.1562841,16.7170552 24.2377391,16.8759525 C24.1525368,17.0359755 24.039401,17.236599 23.8987583,17.4685512 Z" id="Eye" fill="#2F2F40"></path>
            <path d="M10.0872624,16.2881646 C10.4811298,15.6181996 10.9546689,14.9478268 11.5057442,14.3245197 C13.0508437,12.5768976 14.8810527,11.5445046 17,11.5445046 C17.9011088,11.5445046 18.7533973,11.7329093 19.5619289,12.0907332 L20.1157277,10.8393807 C19.1365289,10.4060263 18.0963342,10.1760836 17,10.1760836 C14.4362872,10.1760836 12.2630691,11.4019627 10.4805471,13.4181273 C9.86695493,14.1121457 9.34349277,14.8531929 8.90759684,15.5946479 C8.64427564,16.0425549 8.46666907,16.3954688 8.37368132,16.6069097 L8.24950995,16.8892578 L8.37885532,17.1692734 C8.43239408,17.2851777 8.53264507,17.4834994 8.67936748,17.7460587 C8.92063901,18.1778134 9.20771698,18.6367259 9.54066706,19.1046592 C9.58447157,19.1640694 9.64735677,19.2474389 9.72968812,19.3538574 C9.86683443,19.5311277 10.0089262,19.7085735 10.1494083,19.875532 C10.2032035,19.9394658 10.255896,20.0008067 10.3073199,20.0592471 C10.4443452,20.2149691 10.570313,20.3479056 10.6855131,20.4557946 L11.6209198,19.4570001 C11.5423926,19.3834565 11.4449513,19.2806247 11.3346447,19.1552671 C11.2901638,19.104717 11.2440089,19.0509868 11.1964826,18.9945032 C11.0693293,18.8433857 10.938525,18.6800357 10.8120125,18.5165103 C10.7361486,18.4184514 10.6790722,18.3427829 10.6482133,18.301069 C10.3529221,17.8858601 10.0919752,17.4687198 9.87392539,17.0785203 C9.83219664,17.0038468 9.79511682,16.9358197 9.76271352,16.8750697 C9.84411723,16.7163185 9.95234255,16.517662 10.0872624,16.2881646 Z" id="Eye" fill="#2F2F40"></path>
            <path d="M18.1627822,13.1260635 C17.7887498,13.0133742 17.3979184,12.9554954 17,12.9554954 C14.8052208,12.9554954 13.0216718,14.7111764 13.0216718,16.8823529 C13.0216718,17.2470216 13.0722238,17.6057441 13.1708986,17.9508513 L14.486595,17.574661 C14.4228042,17.3515577 14.3900929,17.1194346 14.3900929,16.8823529 C14.3900929,15.4718003 15.5561971,14.3239164 17,14.3239164 C17.2638708,14.3239164 17.5217209,14.3621019 17.7680284,14.4363099 L18.1627822,13.1260635 Z" id="Combined-Shape" fill="#2F2F40"></path>
            <path d="M15.298221,20.4326565 C15.8259315,20.6794601 16.4043459,20.8092105 17,20.8092105 C19.1947792,20.8092105 20.9783282,19.0535295 20.9783282,16.8823529 C20.9783282,16.3290737 20.8619248,15.7907263 20.6396139,15.2947581 L19.3908984,15.8544774 C19.5347229,16.1753451 19.6099071,16.5230604 19.6099071,16.8823529 C19.6099071,18.2929056 18.4438029,19.4407895 17,19.4407895 C16.6056027,19.4407895 16.2249894,19.35541 15.8779453,19.1931018 L15.298221,20.4326565 Z" id="Combined-Shape" fill="#2F2F40"></path>
            <polygon id="Path-2" fill="#2F2F40" points="10.7171475 22.9563569 23.328463 11.2352339 22.7535585 10.6066174 10.142243 22.3277403"></polygon>
            <circle id="Oval-2" stroke="#2F2F40" stroke-width="2.062" cx="16.5" cy="16.5" r="15.5"></circle>
        </g>
    </g>
</svg>