<?xml version="1.0" encoding="UTF-8"?>
<svg width="21px" height="16px" viewBox="0 0 21 16" version="1.1" xmlns="http://www.w3.org/2000/svg" xmlns:xlink="http://www.w3.org/1999/xlink">
    <!-- Generator: Sketch 43.2 (39069) - http://www.bohemiancoding.com/sketch -->
    <title>viewable icon 2</title>
    <desc>Created with Sketch.</desc>
    <defs></defs>
    <g id="Symbols" stroke="none" stroke-width="1" fill="none" fill-rule="evenodd">
        <g id="viewable-icon-2">
            <path d="M6.47763939,13.9481688 C6.66217469,14.0485379 6.85121598,14.1435259 7.04473933,14.2323153 C8.07151326,14.7034038 9.22445844,15 10.5,15 C16.6967054,15 20,8 20,8 C20,8 16.8550387,1 10.5,1 C4.14496128,1 1,8 1,8 C1,8 1.44135992,8.93528425 2.30406137,10.1221042 C2.30406137,10.1221042 2.6768628,10.6788667 3.10899973,11.16637" id="Eye" stroke="#2F2F40"></path>
            <path d="M11,12 C8.79086089,12 7,10.2091391 7,8 C7,5.79086089 8.79086089,4 11,4 C13.2091391,4 15,5.79086089 15,8 C15,10.2091391 13.2091391,12 11,12 Z M10.8312617,6.32972506 C11.7875935,6.32972506 12.5545699,7.09670153 12.5545699,8.03176587 L13.679382,8.03176587 C13.679382,6.44209981 12.3996603,5.16237812 10.8312617,5.16237812 L10.8312617,6.32972506 Z" id="Combined-Shape" fill="#2F2F40"></path>
        </g>
    </g>
</svg>