<?xml version="1.0" encoding="UTF-8"?>
<svg width="33px" height="33px" viewBox="0 0 33 33" version="1.1" xmlns="http://www.w3.org/2000/svg" xmlns:xlink="http://www.w3.org/1999/xlink">
    <!-- Generator: Sketch 43.2 (39069) - http://www.bohemiancoding.com/sketch -->
    <title>viewable icon hover 1</title>
    <desc>Created with Sketch.</desc>
    <defs></defs>
    <g id="Symbols" stroke="none" stroke-width="1" fill="none" fill-rule="evenodd">
        <g id="viewable-icon-hover-1" fill="#2F2F40">
            <g id="hide">
                <path d="M16.5,33 C7.38730163,33 0,25.6126984 0,16.5 C0,7.38730163 7.38730163,0 16.5,0 C25.6126984,0 33,7.38730163 33,16.5 C33,25.6126984 25.6126984,33 16.5,33 Z M23.6183343,17.3694825 C23.2110913,18.0411202 22.7259853,18.7131237 22.1666421,19.3379585 C20.6002173,21.0877908 18.7797658,22.1211325 16.719576,22.1211325 C15.8041667,22.1211325 14.9325637,21.9154849 14.1002668,21.5253754 C13.9536494,21.4566537 13.8084407,21.3822724 13.6646499,21.3023751 L13,22.4985426 C13.1709963,22.5935566 13.3441628,22.6822589 13.5194988,22.7644414 C14.5285621,23.2374039 15.5972563,23.4895536 16.719576,23.4895536 C19.2253797,23.4895536 21.3833553,22.2646232 23.1862186,20.2506688 C23.8061262,19.5581782 24.3398964,18.8187617 24.7884584,18.0789794 C25.0593207,17.6322649 25.243577,17.2805078 25.3407207,17.0702047 L25.470066,16.7901891 L25.3458947,16.507841 C25.2529069,16.2964001 25.0753004,15.9434862 24.8119792,15.4955792 C24.3760832,14.7541242 23.8526211,14.013077 23.2390289,13.3190586 C23.1433468,13.2108351 23.0460143,13.1044441 22.9470221,13 L21.9538276,13.9413506 C22.0418475,14.0342181 22.1285184,14.1289552 22.2138318,14.225451 C22.7649071,14.8487581 23.2384461,15.5191309 23.6323136,16.1890959 C23.7674836,16.4190189 23.8758601,16.6179865 23.9573151,16.7768838 C23.8721128,16.9369068 23.758977,17.1375303 23.6183343,17.3694825 Z M9.83775246,16.112081 C10.2316199,15.442116 10.705159,14.7717432 11.2562343,14.1484361 C12.8013337,12.400814 14.6315427,11.3684211 16.7504901,11.3684211 C17.6515989,11.3684211 18.5038873,11.5568257 19.312419,11.9146496 L19.8662178,10.6632971 C18.8870189,10.2299427 17.8468243,10 16.7504901,10 C14.1867773,10 12.0135591,11.2258791 10.2310372,13.2420437 C9.61744498,13.9360621 9.09398282,14.6771093 8.65808689,15.4185643 C8.39476569,15.8664713 8.21715912,16.2193852 8.12417137,16.4308261 L8,16.7131742 L8.12934537,16.9931898 C8.18288413,17.1090941 8.28313512,17.3074158 8.42985753,17.5699751 C8.67112906,18.0017298 8.95820703,18.4606423 9.29115711,18.9285756 C9.33496163,18.9879858 9.39784682,19.0713553 9.48017817,19.1777738 C9.61732448,19.3550441 9.75941623,19.5324899 9.8998984,19.6994484 C9.95369351,19.7633822 10.0063861,19.8247231 10.0578099,19.8831636 C10.1948353,20.0388855 10.320803,20.171822 10.4360031,20.279711 L11.3714098,19.2809165 C11.2928827,19.207373 11.1954414,19.1045411 11.0851347,18.9791835 C11.0406539,18.9286334 10.994499,18.8749032 10.9469726,18.8184196 C10.8198194,18.6673021 10.689015,18.5039521 10.5625026,18.3404268 C10.4866387,18.2423678 10.4295622,18.1666993 10.3987034,18.1249854 C10.1034122,17.7097765 9.8424653,17.2926362 9.62441544,16.9024367 C9.5826867,16.8277632 9.54560688,16.7597361 9.51320357,16.6989861 C9.59460728,16.540235 9.7028326,16.3415785 9.83775246,16.112081 Z M16.825,20.6500001 C18.9374892,20.6500001 20.6500001,18.9374892 20.6500001,16.825 C20.6500001,14.7125109 18.9374892,13 16.825,13 C14.7125109,13 13,14.7125109 13,16.825 C13,18.9374892 14.7125109,20.6500001 16.825,20.6500001 Z" id="Combined-Shape"></path>
            </g>
        </g>
    </g>
</svg>