<?xml version="1.0" encoding="UTF-8"?>
<svg width="33px" height="33px" viewBox="0 0 33 33" version="1.1" xmlns="http://www.w3.org/2000/svg" xmlns:xlink="http://www.w3.org/1999/xlink">
    <!-- Generator: Sketch 43.2 (39069) - http://www.bohemiancoding.com/sketch -->
    <title>viewable icon</title>
    <desc>Created with Sketch.</desc>
    <defs></defs>
    <g id="Symbols" stroke="none" stroke-width="1" fill="none" fill-rule="evenodd">
        <g id="viewable-icon">
            <g id="hide" transform="translate(1.000000, 1.000000)">
                <circle id="Combined-Shape" stroke="#2F2F40" stroke-width="2.062" cx="15.5" cy="15.5" r="15.5"></circle>
                <path d="M22.6183343,16.3694825 C22.758977,16.1375303 22.8721128,15.9369068 22.9573151,15.7768838 C22.8758601,15.6179865 22.7674836,15.4190189 22.6323136,15.1890959 C22.2384461,14.5191309 21.7649071,13.8487581 21.2138318,13.225451 C21.1285184,13.1289552 21.0418475,13.0342181 20.9538276,12.9413506 L21.9470221,12 C22.0460143,12.1044441 22.1433468,12.2108351 22.2390289,12.3190586 C22.8526211,13.013077 23.3760832,13.7541242 23.8119792,14.4955792 C24.0753004,14.9434862 24.2529069,15.2964001 24.3458947,15.507841 L24.470066,15.7901891 L24.3407207,16.0702047 C24.243577,16.2805078 24.0593207,16.6322649 23.7884584,17.0789794 C23.3398964,17.8187617 22.8061262,18.5581782 22.1862186,19.2506688 C20.3833553,21.2646232 18.2253797,22.4895536 15.719576,22.4895536 C14.5972563,22.4895536 13.5285621,22.2374039 12.5194988,21.7644414 C12.3441628,21.6822589 12.1709963,21.5935566 12,21.4985426 L12.6646499,20.3023751 C12.8084407,20.3822724 12.9536494,20.4566537 13.1002668,20.5253754 C13.9325637,20.9154849 14.8041667,21.1211325 15.719576,21.1211325 C17.7797658,21.1211325 19.6002173,20.0877908 21.1666421,18.3379585 C21.7259853,17.7131237 22.2110913,17.0411202 22.6183343,16.3694825 Z M8.83775246,15.112081 C8.7028326,15.3415785 8.59460728,15.540235 8.51320357,15.6989861 C8.54560688,15.7597361 8.5826867,15.8277632 8.62441544,15.9024367 C8.8424653,16.2926362 9.1034122,16.7097765 9.39870336,17.1249854 C9.42956223,17.1666993 9.48663866,17.2423678 9.56250256,17.3404268 C9.68901501,17.5039521 9.81981939,17.6673021 9.94697262,17.8184196 C9.99449899,17.8749032 10.0406539,17.9286334 10.0851347,17.9791835 C10.1954414,18.1045411 10.2928827,18.207373 10.3714098,18.2809165 L9.43600313,19.279711 C9.32080304,19.171822 9.19483526,19.0388855 9.05780992,18.8831636 C9.0063861,18.8247231 8.95369351,18.7633822 8.8998984,18.6994484 C8.75941623,18.5324899 8.61732448,18.3550441 8.48017817,18.1777738 C8.39784682,18.0713553 8.33496163,17.9879858 8.29115711,17.9285756 C7.95820703,17.4606423 7.67112906,17.0017298 7.42985753,16.5699751 C7.28313512,16.3074158 7.18288413,16.1090941 7.12934537,15.9931898 L7,15.7131742 L7.12417137,15.4308261 C7.21715912,15.2193852 7.39476569,14.8664713 7.65808689,14.4185643 C8.09398282,13.6771093 8.61744498,12.9360621 9.23103719,12.2420437 C11.0135591,10.2258791 13.1867773,9 15.7504901,9 C16.8468243,9 17.8870189,9.22994272 18.8662178,9.66329713 L18.312419,10.9146496 C17.5038873,10.5568257 16.6515989,10.3684211 15.7504901,10.3684211 C13.6315427,10.3684211 11.8013337,11.400814 10.2562343,13.1484361 C9.70515897,13.7717432 9.2316199,14.442116 8.83775246,15.112081 Z M15.825,19.6500001 C13.7125109,19.6500001 12,17.9374892 12,15.825 C12,13.7125109 13.7125109,12 15.825,12 C17.9374892,12 19.6500001,13.7125109 19.6500001,15.825 C19.6500001,17.9374892 17.9374892,19.6500001 15.825,19.6500001 Z" id="Combined-Shape" fill="#2F2F40"></path>
            </g>
        </g>
    </g>
</svg>