<?xml version="1.0" encoding="UTF-8"?>
<svg width="21px" height="16px" viewBox="0 0 21 16" version="1.1" xmlns="http://www.w3.org/2000/svg" xmlns:xlink="http://www.w3.org/1999/xlink">
    <!-- Generator: Sketch 43.2 (39069) - http://www.bohemiancoding.com/sketch -->
    <title>hidden icon 2</title>
    <desc>Created with Sketch.</desc>
    <defs></defs>
    <g id="Symbols" stroke="none" stroke-width="1" fill="none" fill-rule="evenodd">
        <g id="hidden-icon-2">
            <path d="M6.47763939,14.2430409 C6.66217469,14.34341 6.85121598,14.438398 7.04473933,14.5271874 C8.07151326,14.9982759 9.22445844,15.2948721 10.5,15.2948721 C16.6967054,15.2948721 20,8.29487212 20,8.29487212 C20,8.29487212 19.105089,6.30299487 17.305383,4.44431816 M13.8711086,1.99784432 C12.8707097,1.56446818 11.7471709,1.29487212 10.5,1.29487212 C4.14496128,1.29487212 1,8.29487212 1,8.29487212 C1,8.29487212 1.44135992,9.23015637 2.30406137,10.4169763 C2.30406137,10.4169763 3.04851554,11.4020257 3.55694452,11.8681203" id="Eye" stroke="#2F2F40"></path>
            <path d="M11.6464188,4.69009771 C11.283858,4.58317408 10.8989018,4.52564135 10.5,4.52564135 C8.3395919,4.52564135 6.58823529,6.21318334 6.58823529,8.29487212 C6.58823529,8.64957311 6.63908258,8.99283081 6.73413681,9.31824681 M8.8233487,11.7012957 C9.33150793,11.9339307 9.89997743,12.0641029 10.5,12.0641029 L10.5,12.0641029 C12.6604081,12.0641029 14.4117647,10.3765609 14.4117647,8.29487212 C14.4117647,7.75400106 14.2935339,7.2397381 14.0806167,6.77476962" id="Combined-Shape" stroke="#2F2F40"></path>
            <polygon id="Path-2" fill="#2F2F40" fill-rule="nonzero" points="3.03911265 15.3552527 18.0150498 1.73069959 17.3323507 1 2.35641352 14.6245532"></polygon>
        </g>
    </g>
</svg>