<?xml version="1.0" encoding="UTF-8"?>
<svg width="33px" height="33px" viewBox="0 0 33 33" version="1.1" xmlns="http://www.w3.org/2000/svg" xmlns:xlink="http://www.w3.org/1999/xlink">
    <!-- Generator: Sketch 43.2 (39069) - http://www.bohemiancoding.com/sketch -->
    <title>viewable icon hover 1</title>
    <desc>Created with Sketch.</desc>
    <defs></defs>
    <g id="Symbols" stroke="none" stroke-width="1" fill="none" fill-rule="evenodd">
        <g id="viewable-icon-hover-1" fill="#2F2F40">
            <g id="hide">
                <path d="M16.5,33 C7.38730163,33 0,25.6126984 0,16.5 C0,7.38730163 7.38730163,0 16.5,0 C25.6126984,0 33,7.38730163 33,16.5 C33,25.6126984 25.6126984,33 16.5,33 Z M16.825,20.6500001 C18.9374892,20.6500001 20.6500001,18.9374892 20.6500001,16.825 C20.6500001,14.7125109 18.9374892,13 16.825,13 C14.7125109,13 13,14.7125109 13,16.825 C13,18.9374892 14.7125109,20.6500001 16.825,20.6500001 Z M10.1433663,16.4436375 C10.5351216,15.7797063 11.0061599,15.1153162 11.5541267,14.4977954 C13.0877907,12.7694618 14.90172,11.75 17,11.75 C19.09828,11.75 20.9122093,12.7694618 22.4458733,14.4977954 C22.9938401,15.1153162 23.4648784,15.7797063 23.8566337,16.4436375 C23.9819677,16.6560486 24.084049,16.8416335 24.1627603,16.9930076 C24.0803872,17.1456394 23.9737257,17.3330145 23.8431364,17.5475974 C23.4379673,18.2133671 22.955296,18.8795486 22.3989614,19.4987461 C20.8439144,21.2295053 19.039486,22.25 17,22.25 C16.0941496,22.25 15.2316887,22.0472548 14.4076555,21.6624333 C14.2623944,21.5945968 14.1185086,21.5211631 13.9760073,21.4422724 L13.2494906,22.7545884 C13.4217763,22.8499683 13.5962658,22.9390208 13.7729581,23.0215357 C14.7902851,23.4966248 15.8681214,23.75 17,23.75 C19.5265075,23.75 21.7005062,22.5204947 23.5147473,20.5012539 C24.1376635,19.8079514 24.6738684,19.0678829 25.1245043,18.3274026 C25.3967962,17.8799754 25.5822461,17.5272365 25.6804296,17.315461 L25.8231639,17.0075919 L25.6861322,16.6971426 C25.5921019,16.4841142 25.4132875,16.1301019 25.1485071,15.6813625 C24.7104989,14.9390437 24.1845361,14.1971838 23.5678354,13.5022046 C21.773878,11.4805382 19.5843801,10.25 17,10.25 C14.4156199,10.25 12.226122,11.4805382 10.4321646,13.5022046 C9.81546392,14.1971838 9.28950106,14.9390437 8.85149293,15.6813625 C8.58671248,16.1301019 8.40789811,16.4841142 8.31386781,16.6971426 L8.17683609,17.0075919 L8.31957044,17.315461 C8.37383058,17.4324967 8.47488132,17.6316683 8.6225099,17.8948815 C8.86495439,18.3271459 9.15334945,18.7864751 9.48781738,19.2548199 C9.50750132,19.2857423 9.56898386,19.3759534 9.65055159,19.4903316 C9.78613762,19.680457 9.93032302,19.8708309 10.0785234,20.0507427 C10.1226551,20.1043176 10.1666314,20.1563147 10.2104132,20.2065879 L11.3415863,19.221475 C11.3070749,19.1818466 11.2719326,19.1402948 11.2362995,19.0970371 C11.0232616,18.8384141 10.8354295,18.5750267 10.7247353,18.4067577 C10.4072897,17.9613028 10.1476599,17.5477882 9.93078297,17.1611093 C9.89659456,17.1001534 9.86556352,17.0437028 9.83770589,16.9921111 C9.91635399,16.840901 10.0182796,16.6556294 10.1433663,16.4436375 Z" id="Combined-Shape"></path>
            </g>
        </g>
    </g>
</svg>